# xmcd
#
# Track frame offsets:
#	182
#	15322
#	29335
#	44630
#	62565
#	76925
#	97210
#	113807
#	126762
#	144247
#	167085
#
# Disc length: 2474 seconds
#
# Revision: 11
# Processed by: cddbd v1.5.1PL0 Copyright (c) Steve Scherf et al.
# Submitted via: audiograbber 1.80
#
DISCID=8b09a80b
DTITLE=ClayWalker - Live, Laugh, Love
DYEAR=1999
DGENRE=Country
TTITLE0=She's Always Right
TTITLE1=Lonesome Sleep Tonight
TTITLE2=Holdin' Her And Loving You
TTITLE3=Cold Hearted
TTITLE4=If A Man Ain't Thinking
TTITLE5=Once In A Lifetime Love
TTITLE6=It Ain't Called Heartland
TTITLE7=Woman Thing
TTITLE8=This Time Love
TTITLE9=The Chain Of Love
TTITLE10=Live, Laugh, Love
EXTD=more info\nMillenniumMusicProjectFormat, syntax as follows:\nTitle{Subtitl
EXTD=e}[info](Lyricist;Com
EXTT0=
EXTT1=
EXTT2=
EXTT3=
EXTT4=
EXTT5=
EXTT6=
EXTT7=
EXTT8=
EXTT9=
EXTT10=
PLAYORDER=
